<svg xmlns="http://www.w3.org/2000/svg" xmlns:xlink="http://www.w3.org/1999/xlink" version="1.1" width="1000" height="1000" viewBox="0 0 1000 1000" xml:space="preserve">
<desc>Created with Fabric.js 3.5.0</desc>
<defs>
</defs>
<rect x="0" y="0" width="100%" height="100%" fill="rgba(255,255,255,0)"/>
<g transform="matrix(20.202 0 0 20.202 500 500)" id="892811">
<g style="" vector-effect="non-scaling-stroke">
		<g transform="matrix(1 0 0 1 -0.25 14.2576)">
<path style="stroke: rgb(255,255,255); stroke-width: 1; stroke-dasharray: none; stroke-linecap: butt; stroke-dashoffset: 0; stroke-linejoin: round; stroke-miterlimit: 4; is-custom-font: none; font-file-url: none; fill: rgb(0,0,0); fill-rule: evenodd; opacity: 1;" transform=" translate(-22.5, -36.4076)" d="M 9 36 C 12.39 35.03 19.11 36.43 22.5 34 C 25.89 36.43 32.61 35.03 36 36 C 36 36 37.65 36.54 39 38 C 38.32 38.97 37.35 38.99 36 38.5 C 32.61 37.53 25.89 38.96 22.5 37.5 C 19.11 38.96 12.39 37.53 9 38.5 C 7.65 38.99 6.68 38.97 6 38 C 7.35 36.54 9 36 9 36 z" stroke-linecap="round"/>
</g>
		<g transform="matrix(1 0 0 1 -0.25 0.0375)">
<path style="stroke: rgb(255,255,255); stroke-width: 1; stroke-dasharray: none; stroke-linecap: butt; stroke-dashoffset: 0; stroke-linejoin: round; stroke-miterlimit: 4; is-custom-font: none; font-file-url: none; fill: rgb(0,0,0); fill-rule: evenodd; opacity: 1;" transform=" translate(-22.5, -22.1875)" d="M 15 32 C 17.5 34.5 27.5 34.5 30 32 C 30.5 30.5 30 30 30 30 C 30 27.5 27.5 26 27.5 26 C 33 24.5 33.5 14.5 22.5 10.5 C 11.5 14.5 12 24.5 17.5 26 C 17.5 26 15 27.5 15 30 C 15 30 14.5 30.5 15 32 z" stroke-linecap="round"/>
</g>
		<g transform="matrix(1 0 0 1 -0.25 -14.15)">
<path style="stroke: rgb(255,255,255); stroke-width: 1; stroke-dasharray: none; stroke-linecap: butt; stroke-dashoffset: 0; stroke-linejoin: round; stroke-miterlimit: 4; is-custom-font: none; font-file-url: none; fill: rgb(0,0,0); fill-rule: evenodd; opacity: 1;" transform=" translate(-22.5, -8)" d="M 25 8 A 2.5 2.5 0 1 1 20 8 A 2.5 2.5 0 1 1 25 8 z" stroke-linecap="round"/>
</g>
		<g transform="matrix(1 0 0 1 -0.25 0.6)">
<path style="stroke: rgb(255,255,255); stroke-width: 1; stroke-dasharray: none; stroke-linecap: round; stroke-dashoffset: 0; stroke-linejoin: miter; stroke-miterlimit: 4; is-custom-font: none; font-file-url: none; fill: none; fill-rule: evenodd; opacity: 1;" transform=" translate(-22.5, -22.75)" d="M 17.5 26 L 27.5 26 M 15 30 L 30 30 M 22.5 15.5 L 22.5 20.5 M 20 18 L 25 18" stroke-linecap="round"/>
</g>
</g>
</g>
</svg>